<svg xmlns="http://www.w3.org/2000/svg" viewBox="0 0 560 130" font-family="system-ui, -apple-system, sans-serif">
  <defs>
    <marker id="arr" markerWidth="10" markerHeight="7" refX="9" refY="3.5" orient="auto">
      <polygon points="0 0, 10 3.5, 0 7" fill="#a81d2d"/>
    </marker>
  </defs>

  <!-- Box 1: Source Files -->
  <rect x="10" y="15" width="150" height="100" rx="8" fill="#fff7f6" stroke="#e8c7c0" stroke-width="1.5"/>
  <rect x="10" y="15" width="150" height="30" rx="8" fill="#e8c7c0"/>
  <rect x="10" y="37" width="150" height="8" fill="#e8c7c0"/>
  <text x="85" y="36" text-anchor="middle" font-size="12" font-weight="600" fill="#3f1116">Source Files</text>
  <text x="30" y="64" font-size="11" fill="#7c3a3f">index.adoc</text>
  <text x="30" y="80" font-size="11" fill="#7c3a3f">guide/</text>
  <text x="30" y="96" font-size="11" fill="#7c3a3f">reference/</text>
  <text x="30" y="109" font-size="10" fill="#b07070">images/  public/</text>

  <!-- Arrow 1 -->
  <line x1="163" y1="65" x2="197" y2="65" stroke="#a81d2d" stroke-width="2" marker-end="url(#arr)"/>

  <!-- Box 2: adocserver -->
  <rect x="200" y="15" width="160" height="100" rx="8" fill="#a81d2d"/>
  <text x="280" y="55" text-anchor="middle" font-size="13" font-weight="700" fill="#fff">adocserver</text>
  <text x="280" y="74" text-anchor="middle" font-size="10" fill="#ffc8c4">build nav tree</text>
  <text x="280" y="90" text-anchor="middle" font-size="10" fill="#ffc8c4">render AsciiDoc → HTML</text>
  <text x="280" y="106" text-anchor="middle" font-size="10" fill="#ffc8c4">live reload on save</text>

  <!-- Arrow 2 -->
  <line x1="363" y1="65" x2="397" y2="65" stroke="#a81d2d" stroke-width="2" marker-end="url(#arr)"/>

  <!-- Box 3: Browser (schematic) -->
  <rect x="400" y="15" width="150" height="100" rx="8" fill="#fff7f6" stroke="#e8c7c0" stroke-width="1.5"/>
  <!-- chrome bar -->
  <rect x="400" y="15" width="150" height="24" rx="8" fill="#e8c7c0"/>
  <rect x="400" y="31" width="150" height="8" fill="#e8c7c0"/>
  <circle cx="417" cy="27" r="4" fill="#cf8a86"/>
  <circle cx="431" cy="27" r="4" fill="#cf8a86"/>
  <circle cx="445" cy="27" r="4" fill="#cf8a86"/>
  <!-- sidebar strip -->
  <rect x="403" y="42" width="38" height="70" fill="#fff0ee"/>
  <rect x="407" y="48" width="26" height="5" rx="2" fill="#e8c7c0"/>
  <rect x="407" y="58" width="20" height="4" rx="2" fill="#f0d8d5"/>
  <rect x="410" y="66" width="17" height="3" rx="2" fill="#f0d8d5"/>
  <rect x="410" y="73" width="19" height="3" rx="2" fill="#f0d8d5"/>
  <rect x="407" y="81" width="23" height="4" rx="2" fill="#f0d8d5"/>
  <!-- content -->
  <rect x="447" y="46" width="96" height="8" rx="2" fill="#a81d2d" opacity="0.35"/>
  <rect x="447" y="60" width="82" height="4" rx="2" fill="#e8c7c0"/>
  <rect x="447" y="69" width="90" height="4" rx="2" fill="#e8c7c0"/>
  <rect x="447" y="78" width="74" height="4" rx="2" fill="#e8c7c0"/>
  <rect x="447" y="90" width="60" height="3" rx="2" fill="#f0d8d5"/>
  <rect x="447" y="98" width="78" height="3" rx="2" fill="#f0d8d5"/>
</svg>
